<?xml version="1.0" encoding="UTF-8" standalone="no"?>
<svg
   height="24"
   viewBox="0 0 24 24"
   width="24"
   version="1.1"
   id="svg6"
   sodipodi:docname="directions_run-24px.svg"
   inkscape:version="1.2.1 (9c6d41e410, 2022-07-14, custom)"
   xmlns:inkscape="http://www.inkscape.org/namespaces/inkscape"
   xmlns:sodipodi="http://sodipodi.sourceforge.net/DTD/sodipodi-0.dtd"
   xmlns="http://www.w3.org/2000/svg"
   xmlns:svg="http://www.w3.org/2000/svg">
  <defs
     id="defs10" />
  <sodipodi:namedview
     id="namedview8"
     pagecolor="#ffffff"
     bordercolor="#666666"
     borderopacity="1.0"
     inkscape:showpageshadow="2"
     inkscape:pageopacity="0.0"
     inkscape:pagecheckerboard="0"
     inkscape:deskcolor="#d1d1d1"
     showgrid="false"
     inkscape:zoom="35.875"
     inkscape:cx="7.4146341"
     inkscape:cy="12"
     inkscape:window-width="2560"
     inkscape:window-height="1403"
     inkscape:window-x="0"
     inkscape:window-y="0"
     inkscape:window-maximized="1"
     inkscape:current-layer="svg6" />
  <path
     d="M0 0h24v24H0z"
     fill="none"
     id="path2" />
  <path
     d="m 14.55,5.48 c 1.1,0 2,-0.9 2,-2 0,-1.1 -0.9,-2 -2,-2 -1.1,0 -2,0.9 -2,2 0,1.1 0.9,2 2,2 z m -3.6,13.9 1,-4.4 2.1,2 v 6 h 2 v -7.5 l -2.1,-2 0.6,-3 c 1.3,1.5 3.3,2.5 5.5,2.5 v -2 c -1.9,0 -3.5,-1 -4.3,-2.4 l -1,-1.6 c -0.4,-0.6 -1,-1 -1.7,-1 -0.3,0 -0.5,0.1 -0.8,0.1 l -5.2,2.2 v 4.7 h 2 v -3.4 l 1.8,-0.7 -1.6,8.1 -4.9,-1 -0.4,2 z"
     id="path4" />
</svg>
