<?xml version="1.0" encoding="UTF-8" standalone="no"?>
<!-- Generator: Adobe Illustrator 24.2.1, SVG Export Plug-In . SVG Version: 6.00 Build 0)  -->

<svg
   version="1.1"
   x="0px"
   y="0px"
   viewBox="0 0 586 559"
   style="enable-background:new 0 0 586 559;"
   xml:space="preserve"
   id="svg99"
   sodipodi:docname="gitlab-icon-1-color-black-rgb.svg"
   inkscape:version="1.1 (c4e8f9ed74, 2021-05-24)"
   xmlns:inkscape="http://www.inkscape.org/namespaces/inkscape"
   xmlns:sodipodi="http://sodipodi.sourceforge.net/DTD/sodipodi-0.dtd"
   xmlns="http://www.w3.org/2000/svg"
   xmlns:svg="http://www.w3.org/2000/svg"
   xmlns:sketch="http://www.bohemiancoding.com/sketch/ns"><defs
   id="defs103" /><sodipodi:namedview
   id="namedview101"
   pagecolor="#ffffff"
   bordercolor="#666666"
   borderopacity="1.0"
   inkscape:pageshadow="2"
   inkscape:pageopacity="0.0"
   inkscape:pagecheckerboard="0"
   showgrid="false"
   inkscape:zoom="1.3005367"
   inkscape:cx="292.95598"
   inkscape:cy="279.5"
   inkscape:window-width="1554"
   inkscape:window-height="940"
   inkscape:window-x="255"
   inkscape:window-y="50"
   inkscape:window-maximized="0"
   inkscape:current-layer="svg99" />
<style
   type="text/css"
   id="style73">
	.st0{fill:#FAFAFA;}
	.st1{fill:#F0F0F0;}
	.st2{fill:#FFFFFF;}
	.st3{fill:#E24329;}
	.st4{fill:#FCA326;}
	.st5{fill:#FC6D26;}
	.st6{fill:#8C929D;}
	.st7{fill:#2E2E2E;}
	.st8{fill:none;stroke:#FCA326;stroke-width:16;stroke-linecap:round;stroke-linejoin:round;stroke-miterlimit:10;}
	.st9{fill:none;stroke:#FC6D26;stroke-width:16;stroke-linecap:round;stroke-linejoin:round;stroke-miterlimit:10;}
	.st10{fill:none;stroke:#E24329;stroke-width:16;stroke-linecap:round;stroke-linejoin:round;stroke-miterlimit:10;}
	.st11{fill:none;stroke:#F0F0F0;stroke-miterlimit:10;}
	.st12{fill:#231F20;}
	.st13{fill:none;stroke:#231F20;stroke-width:16;stroke-linecap:round;stroke-linejoin:round;stroke-miterlimit:10;}
	.st14{display:none;}
	.st15{display:inline;opacity:0.1;fill:#E828E3;}
	.st16{display:inline;}
	.st17{opacity:0.1;fill:#E828E3;}
	.st18{font-family:'SourceSansPro-Semibold';}
	.st19{font-size:24px;}
	.st20{display:inline;fill:#DB3B21;}
	.st21{display:inline;fill:#FC6D26;}
	.st22{display:inline;fill:#2E2E2E;}
	.st23{display:inline;fill:#6E49CB;}
	.st24{display:inline;fill:#380D75;}
	.st25{display:inline;fill:#FCA121;}
	.st26{opacity:0.6;fill:none;stroke:#231F20;stroke-width:2;stroke-miterlimit:10;stroke-dasharray:12,6;}
	.st27{fill:none;stroke:#444444;stroke-width:1.5339;stroke-miterlimit:10;}
</style>
<g
   id="logo_art"
   transform="matrix(1.727672,0,0,1.727672,-212.82022,-203.76429)">
	<path
   class="st12"
   d="M 461.514,298.355 C 443.19553,242.36158 425.4261,186.35109 406.74024,130.35443 400.6546,117.59735 380.66035,122.4555 379.58999,136.03776 368.63366,169.76851 357.67733,203.49925 346.721,237.23 c -35.771,0 -71.542,0 -107.313,0 -11.70272,-35.58624 -22.96706,-71.33401 -34.94395,-106.81921 -5.6392,-12.41663 -25.42042,-8.42298 -26.91137,4.75225 -17.69228,54.54711 -35.23509,108.80241 -53.00068,163.19196 -4.78232,12.76255 5.76957,22.63539 15.57699,28.66726 49.49211,35.95198 98.97007,71.92472 148.47101,107.86374 1.33731,1.0486 5.17389,1.99885 7.473,0.708 42.88525,-30.44978 85.21891,-61.81343 127.89373,-92.61175 11.47039,-8.94575 24.34166,-16.32403 34.72929,-26.48522 3.76257,-5.14732 4.83227,-12.09502 2.81798,-18.14203 z m -67.32,-155.581 c 10.22667,31.48533 20.45333,62.97067 30.68,94.456 -20.45333,0 -40.90667,0 -61.36,0 10.22667,-31.48533 20.45333,-62.97067 30.68,-94.456 z m 25.307,110.428 c -34.95057,44.783 -69.90205,89.56529 -104.853,134.348 14.559,-44.78267 29.118,-89.56533 43.677,-134.348 20.392,0 40.784,0 61.176,0 z m -134.073,177.505 0.029,0.071 z M 271.42,387.558 c -34.932,-44.78533 -69.864,-89.57067 -104.796,-134.356 20.39333,0 40.78667,0 61.18,0 14.53867,44.78533 29.07733,89.57067 43.616,134.356 z M 191.875,142.773 c 10.24567,31.48567 20.49133,62.97133 30.737,94.457 -20.45333,0 -40.90667,0 -61.36,0 10.20767,-31.48567 20.41533,-62.97133 30.623,-94.457 z m -50.571,165.36 c -3.78101,-6.13451 2.21234,-13.23003 3.30029,-19.76267 2.86757,-8.80011 5.73514,-17.60022 8.60271,-26.40033 32.89,42.16733 65.78,84.33467 98.67,126.502 -36.85767,-26.77967 -73.71533,-53.55933 -110.573,-80.339 z m 146.749,126.356 c -1.25705,-1.14055 0.0357,0.0618 0,0 z m 4.975,-32.097 c -16.14397,-49.7299 -32.28772,-99.45987 -48.431,-149.19 32.311,0 64.622,0 96.933,0 -16.16733,49.73 -32.33467,99.46 -48.502,149.19 z m 5.253,31.849 c -1.43287,1.21259 1.04804,-0.95007 0,0 z M 444.766,308.13 c -36.85233,26.77233 -73.70467,53.54467 -110.557,80.317 32.901,-42.15567 65.802,-84.31133 98.703,-126.467 4.47067,13.769 8.94133,27.538 13.412,41.307 l 0.007,2.6825 z"
   id="path75" />
</g>
<g
   id="spacing_guides"
   class="st14">
	<path
   id="path40_116_"
   sketch:type="MSShapeGroup"
   class="st15"
   d="M0,0.5v124h586V0.5H0L0,0.5z" />
	<path
   id="path40_115_"
   sketch:type="MSShapeGroup"
   class="st15"
   d="M0,435.5v124h586v-124H0L0,435.5z" />
	<path
   id="path40_114_"
   sketch:type="MSShapeGroup"
   class="st15"
   d="M462.2,560h124V0h-124V560L462.2,560z" />
	<g
   class="st16"
   id="g83">
		<text
   transform="matrix(1 0 0 1 511.2881 283.332)"
   class="st18 st19"
   id="text81">1x</text>
	</g>
	<g
   class="st16"
   id="g87">
		<text
   transform="matrix(1 0 0 1 281.2881 500.9979)"
   class="st18 st19"
   id="text85">1x</text>
	</g>
	<g
   class="st16"
   id="g91">
		<text
   transform="matrix(1 0 0 1 281.2881 65.9981)"
   class="st18 st19"
   id="text89">1x</text>
	</g>
	<path
   id="path40_109_"
   sketch:type="MSShapeGroup"
   class="st15"
   d="M0,560h124V0H0V560L0,560z" />
	<g
   class="st16"
   id="g96">
		<text
   transform="matrix(1 0 0 1 51.2881 283.332)"
   class="st18 st19"
   id="text94">1x</text>
	</g>
</g>
</svg>
