<?xml version="1.0" encoding="UTF-8" standalone="no"?>
<svg
   class="svg-icon"
   style="width: 1em; height: 1em;vertical-align: middle;fill: currentColor;overflow: hidden;"
   viewBox="0 0 1024 1024"
   version="1.1"
   id="svg4"
   sodipodi:docname="gz.svg"
   inkscape:version="1.1 (c4e8f9ed74, 2021-05-24)"
   xmlns:inkscape="http://www.inkscape.org/namespaces/inkscape"
   xmlns:sodipodi="http://sodipodi.sourceforge.net/DTD/sodipodi-0.dtd"
   xmlns="http://www.w3.org/2000/svg"
   xmlns:svg="http://www.w3.org/2000/svg">
  <defs
     id="defs8">
    <rect
       x="84.816798"
       y="480.37113"
       width="575.41076"
       height="232.21467"
       id="rect10335" />
    <rect
       x="101.77467"
       y="502.02252"
       width="549.55425"
       height="192.14245"
       id="rect2043" />
  </defs>
  <sodipodi:namedview
     id="namedview6"
     pagecolor="#ffffff"
     bordercolor="#666666"
     borderopacity="1.0"
     inkscape:pageshadow="2"
     inkscape:pageopacity="0.0"
     inkscape:pagecheckerboard="0"
     showgrid="false"
     inkscape:zoom="0.70996094"
     inkscape:cx="512"
     inkscape:cy="520.45117"
     inkscape:window-width="1643"
     inkscape:window-height="940"
     inkscape:window-x="34"
     inkscape:window-y="34"
     inkscape:window-maximized="0"
     inkscape:current-layer="svg4" />
  <path
     id="path2"
     d="M 354.40039 0 C 267.36039 0 196.96094 70.559608 196.96094 157.59961 L 196.96094 433.2793 L 78.720703 433.2793 C 57.063103 433.2793 39.357422 450.97986 39.357422 472.64258 L 39.357422 708.96094 C 39.357422 730.61854 57.057983 748.31836 78.720703 748.31836 L 196.96094 748.31836 L 196.96094 866.40039 C 196.96094 953.44039 267.36039 1024 354.40039 1024 L 827.03906 1024 C 914.07906 1024 984.63672 953.44039 984.63672 866.40039 L 984.63672 315.0332 C 984.63672 273.28472 945.64839 233.10239 877.11719 165.75391 L 848 136.63281 L 818.87695 107.51953 C 751.53871 38.988332 711.39417 9.4739031e-15 669.59961 0 L 354.40625 0 L 354.40039 0 z M 354.40039 78.720703 L 641.60352 78.720703 C 669.95808 85.811903 669.59961 120.85713 669.59961 155.51953 L 669.59961 275.68164 C 669.59961 297.33924 687.29822 315.03906 708.96094 315.03906 L 827.03906 315.03906 C 866.42722 315.03906 905.91797 315.01223 905.91797 354.40039 L 905.91797 866.40039 C 905.91797 909.72071 870.3645 945.2793 827.03906 945.2793 L 354.40625 945.2793 C 311.08081 945.2793 275.68555 909.72071 275.68555 866.40039 L 275.68555 748.31836 L 669.60352 748.31836 C 691.26624 748.31836 708.9668 730.62366 708.9668 708.96094 L 708.9668 472.64258 C 708.9668 450.97986 691.26624 433.2793 669.60352 433.2793 L 275.68164 433.2793 L 275.68164 157.59961 C 275.68164 114.27929 311.07495 78.720703 354.40039 78.720703 z M 281.11328 475.49219 C 295.31107 475.49219 308.77847 477.24137 321.51758 480.74219 C 334.35394 484.24302 346.17064 489.39792 356.96484 496.20508 L 356.96484 527.56641 C 346.07339 518.32812 334.50093 511.3748 322.24805 506.70703 C 309.99517 502.03927 297.10887 499.70508 283.5918 499.70508 C 256.94663 499.70508 236.91592 507.14494 223.49609 522.02344 C 210.17352 536.90195 203.51172 559.07379 203.51172 588.53906 C 203.51172 617.90709 210.17352 640.0297 223.49609 654.9082 C 236.91592 669.7867 256.94663 677.22656 283.5918 677.22656 C 293.99703 677.22656 303.28455 676.35197 311.45312 674.60156 C 319.62172 672.7539 326.9631 669.93318 333.47852 666.14062 L 333.47852 607.64844 L 285.34375 607.64844 L 285.34375 583.43359 L 362.65234 583.43359 L 362.65234 676.93555 C 351.27467 685.00689 338.73109 691.13291 325.01953 695.31445 C 311.30797 699.39875 296.6725 701.44141 281.11328 701.44141 C 247.07749 701.44141 220.43226 691.5216 201.17773 671.68359 C 182.02044 651.74834 172.44141 624.03353 172.44141 588.53906 C 172.44141 552.94734 182.02044 525.23253 201.17773 505.39453 C 220.43226 485.45928 247.07749 475.49219 281.11328 475.49219 z M 403.93359 479.42969 L 575.03711 479.42969 L 575.03711 501.89453 L 437.33789 672.41211 L 578.39062 672.41211 L 578.39062 697.21094 L 400.57812 697.21094 L 400.57812 674.74609 L 538.27734 504.22656 L 403.93359 504.22656 L 403.93359 479.42969 z " />
</svg>
