<?xml version="1.0" encoding="UTF-8" standalone="no"?>
<svg
   class="svg-icon"
   style="width: 1em; height: 1em;vertical-align: middle;fill: currentColor;overflow: hidden;"
   viewBox="0 0 1024 1024"
   version="1.1"
   id="svg4"
   sodipodi:docname="log.svg"
   inkscape:version="1.1 (c4e8f9ed74, 2021-05-24)"
   xmlns:inkscape="http://www.inkscape.org/namespaces/inkscape"
   xmlns:sodipodi="http://sodipodi.sourceforge.net/DTD/sodipodi-0.dtd"
   xmlns="http://www.w3.org/2000/svg"
   xmlns:svg="http://www.w3.org/2000/svg">
  <defs
     id="defs8">
    <rect
       x="84.816798"
       y="480.37113"
       width="575.41076"
       height="232.21467"
       id="rect10335" />
    <rect
       x="101.77467"
       y="502.02252"
       width="549.55425"
       height="192.14245"
       id="rect2043" />
  </defs>
  <sodipodi:namedview
     id="namedview6"
     pagecolor="#ffffff"
     bordercolor="#666666"
     borderopacity="1.0"
     inkscape:pageshadow="2"
     inkscape:pageopacity="0.0"
     inkscape:pagecheckerboard="0"
     showgrid="false"
     inkscape:zoom="0.70996094"
     inkscape:cx="276.77579"
     inkscape:cy="520.45117"
     inkscape:window-width="1643"
     inkscape:window-height="940"
     inkscape:window-x="34"
     inkscape:window-y="34"
     inkscape:window-maximized="0"
     inkscape:current-layer="svg4" />
  <path
     id="path2"
     d="M 354.40039 0 C 267.36039 0 196.96094 70.559607 196.96094 157.59961 L 196.96094 433.2793 L 78.720703 433.2793 C 57.063103 433.2793 39.357422 450.97986 39.357422 472.64258 L 39.357422 708.96094 C 39.357422 730.61854 57.057983 748.31836 78.720703 748.31836 L 196.96094 748.31836 L 196.96094 866.40039 C 196.96094 953.44039 267.36039 1024 354.40039 1024 L 827.03906 1024 C 914.07906 1024 984.63672 953.44039 984.63672 866.40039 L 984.63672 315.0332 C 984.63672 273.28472 945.64839 233.10239 877.11719 165.75391 L 848 136.63281 L 818.87695 107.51953 C 751.53871 38.988333 711.39417 9.4739031e-15 669.59961 0 L 354.40625 0 L 354.40039 0 z M 354.40039 78.720703 L 641.60352 78.720703 C 669.95808 85.811903 669.59961 120.85713 669.59961 155.51953 L 669.59961 275.68164 C 669.59961 297.33924 687.29822 315.03906 708.96094 315.03906 L 827.03906 315.03906 C 866.42722 315.03906 905.91797 315.01223 905.91797 354.40039 L 905.91797 866.40039 C 905.91797 909.72071 870.3645 945.2793 827.03906 945.2793 L 354.40625 945.2793 C 311.08081 945.2793 275.68555 909.72071 275.68555 866.40039 L 275.68555 748.31836 L 669.60352 748.31836 C 691.26624 748.31836 708.9668 730.62366 708.9668 708.96094 L 708.9668 472.64258 C 708.9668 450.97986 691.26624 433.2793 669.60352 433.2793 L 275.68164 433.2793 L 275.68164 157.59961 C 275.68164 114.27929 311.07495 78.720703 354.40039 78.720703 z M 337.51562 478.42188 C 368.0506 478.42188 392.46011 488.68245 410.74219 509.20117 C 429.02428 529.62265 438.16602 557.04398 438.16602 591.46875 C 438.16602 625.79628 429.02428 653.21956 410.74219 673.73828 C 392.46011 694.15975 368.05061 704.37109 337.51562 704.37109 C 306.88342 704.37109 282.37934 694.15975 264 673.73828 C 245.71792 653.3168 236.57617 625.89352 236.57617 591.46875 C 236.57617 557.04398 245.71792 529.62265 264 509.20117 C 282.37934 488.68245 306.88342 478.42186 337.51562 478.42188 z M 580.38672 478.42188 C 594.5845 478.42188 608.0519 480.17301 620.79102 483.67383 C 633.62738 487.17466 645.44408 492.3276 656.23828 499.13477 L 656.23828 530.49609 C 645.34683 521.25781 633.77437 514.30644 621.52148 509.63867 C 609.26861 504.97091 596.38231 502.63672 582.86523 502.63672 C 556.22006 502.63672 536.1874 510.07463 522.76758 524.95312 C 509.445 539.83163 502.78516 562.00348 502.78516 591.46875 C 502.78516 620.83678 509.445 642.96134 522.76758 657.83984 C 536.1874 672.71834 556.22006 680.15625 582.86523 680.15625 C 593.27046 680.15625 602.55798 679.28166 610.72656 677.53125 C 618.89516 675.68359 626.23654 672.86287 632.75195 669.07031 L 632.75195 610.57812 L 584.61719 610.57812 L 584.61719 586.36328 L 661.92578 586.36328 L 661.92578 679.86523 C 650.5481 687.93658 638.00453 694.0626 624.29297 698.24414 C 610.58141 702.32843 595.94594 704.37109 580.38672 704.37109 C 546.35092 704.37109 519.7057 694.45129 500.45117 674.61328 C 481.29387 654.67803 471.71484 626.96322 471.71484 591.46875 C 471.71484 555.87703 481.29387 528.16222 500.45117 508.32422 C 519.7057 488.38897 546.35092 478.42188 580.38672 478.42188 z M 93.333984 482.36133 L 122.79883 482.36133 L 122.79883 675.34375 L 228.8457 675.34375 L 228.8457 700.14062 L 93.333984 700.14062 L 93.333984 482.36133 z M 337.51562 502.34375 C 316.1217 502.34375 299.10475 510.31937 286.46289 526.26758 C 273.91827 542.21577 267.64648 563.94838 267.64648 591.46875 C 267.64648 618.89187 273.91827 640.57914 286.46289 656.52734 C 299.10475 672.47554 316.1217 680.44922 337.51562 680.44922 C 358.90956 680.44922 375.83192 672.47554 388.2793 656.52734 C 400.82392 640.57914 407.0957 618.89187 407.0957 591.46875 C 407.0957 563.94838 400.82392 542.21577 388.2793 526.26758 C 375.83192 510.31937 358.90957 502.34375 337.51562 502.34375 z " />
</svg>
