<svg
    xmlns="http://www.w3.org/2000/svg"
    viewBox="0 0 24 24"
    height="24" 
    width="24"    
    id="vector">
    <path
        id="path"
        d="M 21.26 21.21 L 3.79 3.74 L 2.38 5.15 L 5.12 7.89 L 5 8.01 L 5 19 C 5 20.1 5.9 21 7 21 L 17 21 C 17.35 21 17.68 20.9 17.97 20.74 L 19.85 22.62 L 21.26 21.21 Z M 7 19 L 7 9.77 L 16.23 19 L 7 19 Z M 10.84 5 L 17 5 L 17 14.11 L 19 16.11 L 19 5 C 19 3.9 18.1 3 17 3 L 10.01 3 L 7.95 5.06 L 9.36 6.47 L 10.84 5 Z"
        fill="#000000"/>
</svg>
