<svg
    xmlns="http://www.w3.org/2000/svg"
    viewBox="0 0 24 24"
    height="24" 
    width="24"
    id="vector">
    <path
        id="path"
        d="M 8.67 5.84 L 7.22 4.39 C 8.6 3.51 10.24 3 12 3 C 14.74 3 17.19 4.23 18.84 6.16 L 21 4 L 21 10 L 15 10 L 17.41 7.59 C 16.12 6.02 14.18 5 12 5 C 10.8 5 9.66 5.31 8.67 5.84 Z M 13 7 L 11 7 L 11 8.17 L 13 10.17 L 13 7 Z M 19.78 22.61 L 16.78 19.61 C 15.39 20.48 13.76 21 12 21 C 7.03 21 3 16.97 3 12 C 3 10.24 3.51 8.6 4.39 7.22 L 1.39 4.22 L 2.8 2.81 L 21.18 21.19 L 19.78 22.61 Z M 15.32 18.15 L 5.84 8.67 C 5.31 9.66 5 10.8 5 12 C 5 15.86 8.14 19 12 19 C 13.2 19 14.34 18.69 15.32 18.15 Z M 20.94 13 L 18.92 13 C 18.8 13.83 18.53 14.61 18.15 15.32 L 19.62 16.79 C 20.32 15.67 20.79 14.38 20.94 13 Z"
        fill="#000000"/>
</svg>
